<svg xmlns="http://www.w3.org/2000/svg" id="logo" width="40" height="31.062" viewBox="0 0 40 31.062"><defs><style> .cls-1 { fill: #fff; fill-rule: evenodd; } </style></defs><path class="cls-1" d="M180.637,31.2h21.787a2.119,2.119,0,0,1,2.106,2.35l-1.1,10.059a19.189,19.189,0,0,0-4.94.915l0.437-7.967a1.056,1.056,0,1,0-2.109-.116l-0.492,8.966a12.8,12.8,0,0,0-3.733,2.732V36.5a1.059,1.059,0,1,0-2.117,0V50.087a5,5,0,0,1-.631.254c-0.92.3-1.849,0.59-2.785,0.854l-0.809-14.75a1.056,1.056,0,1,0-2.109.116l0.833,15.18q-0.357.085-.714,0.164a26.984,26.984,0,0,1-3.648.586l-2.077-18.937a2.119,2.119,0,0,1,2.1-2.35h0Zm7.481-6h6.825a1.71,1.71,0,0,1,1.638,1.163l0.4,1.149h7.256a1.451,1.451,0,0,1,1.446,1.446h0a1.451,1.451,0,0,1-1.446,1.446H178.822a1.451,1.451,0,0,1-1.446-1.446h0a1.451,1.451,0,0,1,1.446-1.446h7.256l0.4-1.149A1.71,1.71,0,0,1,188.118,25.205Zm1.014,27.84c-17.931,6.893-22.23,1.94-10.8-7.465-6.387,7.624-2.268,10.382,11.838,5.763a5.389,5.389,0,0,0,2.675-1.877c4.22-5.392,14.855-6.564,20.719-1.992-4.321-.065-11.536,12.871-20.72,5.213q3.7-1.852,10.886-4.8A133.388,133.388,0,0,0,189.132,53.045ZM172.65,46.51l0.21-.6a1.483,1.483,0,0,1,.959-0.949l0.571-.192a0.046,0.046,0,0,0,.032-0.044,0.045,0.045,0,0,0-.031-0.044l-0.6-.209a1.485,1.485,0,0,1-.948-0.96l-0.192-.572a0.045,0.045,0,0,0-.044-0.032,0.046,0.046,0,0,0-.044.031l-0.209.6a1.488,1.488,0,0,1-.959.949l-0.572.192a0.045,0.045,0,0,0-.031.044,0.046,0.046,0,0,0,.031.044l0.6,0.209a1.487,1.487,0,0,1,.949.96l0.191,0.572a0.047,0.047,0,0,0,.044.032A0.045,0.045,0,0,0,172.65,46.51Zm3.089-5.54,0.2-.565a1.4,1.4,0,0,1,.9-0.891l0.536-.18a0.044,0.044,0,0,0,0-.083l-0.564-.2a1.4,1.4,0,0,1-.891-0.9l-0.179-.536a0.043,0.043,0,0,0-.041-0.03,0.043,0.043,0,0,0-.042.029l-0.2.565a1.393,1.393,0,0,1-.9.89l-0.536.18a0.044,0.044,0,0,0-.03.041,0.042,0.042,0,0,0,.029.041l0.565,0.2a1.394,1.394,0,0,1,.89.9l0.18,0.537a0.043,0.043,0,0,0,.041.03A0.042,0.042,0,0,0,175.739,40.97Zm-4.99-.694,0.137-.394a0.977,0.977,0,0,1,.629-0.622l0.374-.125a0.03,0.03,0,0,0,0-.058L171.5,38.94a0.973,0.973,0,0,1-.622-0.629l-0.126-.374a0.029,0.029,0,0,0-.028-0.021,0.03,0.03,0,0,0-.029.02l-0.137.394a0.975,0.975,0,0,1-.628.622l-0.375.126a0.032,0.032,0,0,0-.021.029,0.03,0.03,0,0,0,.021.029l0.394,0.137a0.974,0.974,0,0,1,.621.629l0.126,0.374A0.03,0.03,0,0,0,170.749,40.276Z" transform="translate(-169.531 -25.219)"/><script xmlns=""/></svg>